<?xml version="1.0" encoding="UTF-8"?><svg id="a" xmlns="http://www.w3.org/2000/svg" xmlns:xlink="http://www.w3.org/1999/xlink" viewBox="0 0 205.14 269.28"><defs><style>.ad{fill:url(#u);}.ae{fill:url(#t);}.af{fill:url(#v);}.ag{fill:url(#e);}.ah{fill:url(#d);}.ai{fill:url(#g);}.aj{fill:url(#f);}.ak{fill:url(#p);}.al{fill:url(#o);}.am{fill:url(#s);}.an{fill:url(#q);}.ao{fill:url(#r);}.ap{fill:url(#i);}.aq{fill:url(#h);}.ar{fill:url(#k);}.as{fill:url(#j);}.at{fill:url(#m);}.au{fill:url(#l);}.av{fill:url(#n);}.aw{fill:url(#c);}.ax{fill:url(#b);}.ay{fill:url(#x);}.b`{fill:url(#w);}.ba{fill:url(#y);}.bb{fill:url(#aa);}.bc{fill:url(#ab);}.bd{fill:url(#a`);}.be{fill:url(#ac);}.bf{fill:none;}.bg{fill:#312a91;}.bh,.bi,.bj{fill:#42e8e0;}.bk{fill:#6ee8fc;}.bl,.bm{fill:#a2d7d8;}.bi{opacity:.3;}.bi,.bj,.bm{isolation:isolate;}.bj{opacity:.5;}.bm{opacity:.6;}</style><radialGradient id="b" cx="80.03" cy="108.08" fx="80.03" fy="108.08" r="6.87" gradientTransform="translate(0 268.95) scale(1 -1)" gradientUnits="userSpaceOnUse"><stop offset="0" stop-color="#42e8e0"/><stop offset=".02" stop-color="#3fd8d6"/><stop offset=".1" stop-color="#35a9b9"/><stop offset=".18" stop-color="#2d7fa0"/><stop offset=".26" stop-color="#275b8a"/><stop offset=".35" stop-color="#213f79"/><stop offset=".44" stop-color="#1d286b"/><stop offset=".54" stop-color="#1a1962"/><stop offset=".66" stop-color="#180f5c"/><stop offset=".82" stop-color="#180d5b"/></radialGradient><linearGradient id="c" x1="-1240.37" y1="37.33" x2="-1371.74" y2="109.38" gradientTransform="translate(1427.86 268.95) scale(1 -1)" gradientUnits="userSpaceOnUse"><stop offset="0" stop-color="#180d5b"/><stop offset=".09" stop-color="#191560"/><stop offset=".25" stop-color="#1e2c6e"/><stop offset=".44" stop-color="#255285"/><stop offset=".66" stop-color="#2f87a5"/><stop offset=".9" stop-color="#3cc9cd"/><stop offset="1" stop-color="#42e8e0"/></linearGradient><linearGradient id="d" x1="-1346.21" y1="59.97" x2="-1254.85" y2="59.97" gradientTransform="translate(1427.86 268.95) scale(1 -1)" gradientUnits="userSpaceOnUse"><stop offset="0" stop-color="#2b237c"/><stop offset="1" stop-color="#180d5b"/></linearGradient><linearGradient id="e" x1="-1318.28" y1="38" x2="-1401.5" y2="85.31" gradientTransform="translate(1427.86 268.95) scale(1 -1)" gradientUnits="userSpaceOnUse"><stop offset="0" stop-color="#180d5b"/><stop offset=".1" stop-color="#191560"/><stop offset=".25" stop-color="#1d2c6e"/><stop offset=".28" stop-color="#1f3372"/><stop offset=".38" stop-color="#22447c"/><stop offset=".57" stop-color="#2a7097"/><stop offset=".83" stop-color="#38b7c2"/><stop offset="1" stop-color="#42e8e0"/></linearGradient><linearGradient id="f" x1="-1282.35" y1="78.34" x2="-1389.55" y2="147.96" gradientTransform="translate(1427.86 268.95) scale(1 -1)" gradientUnits="userSpaceOnUse"><stop offset="0" stop-color="#180d5b"/><stop offset=".09" stop-color="#191560"/><stop offset=".25" stop-color="#1e2c6e"/><stop offset=".44" stop-color="#255285"/><stop offset=".66" stop-color="#2f87a5"/><stop offset=".9" stop-color="#3cc9cd"/><stop offset="1" stop-color="#42e8e0"/></linearGradient><linearGradient id="g" x1="-1346.21" y1="82.27" x2="-1254.85" y2="82.27" gradientTransform="translate(1427.86 268.95) scale(1 -1)" gradientUnits="userSpaceOnUse"><stop offset="0" stop-color="#2b237c"/><stop offset="1" stop-color="#180d5b"/></linearGradient><linearGradient id="h" x1="-1328.93" y1="66.48" x2="-1403.82" y2="108.71" gradientTransform="translate(1427.86 268.95) scale(1 -1)" gradientUnits="userSpaceOnUse"><stop offset="0" stop-color="#180d5b"/><stop offset=".1" stop-color="#191560"/><stop offset=".25" stop-color="#1d2c6e"/><stop offset=".28" stop-color="#1f3372"/><stop offset=".38" stop-color="#22447c"/><stop offset=".57" stop-color="#2a7097"/><stop offset=".83" stop-color="#38b7c2"/><stop offset="1" stop-color="#42e8e0"/></linearGradient><linearGradient id="i" x1="-1303.67" y1="101.21" x2="-1389.85" y2="120.68" gradientTransform="translate(1427.86 268.95) scale(1 -1)" gradientUnits="userSpaceOnUse"><stop offset="0" stop-color="#180d5b"/><stop offset=".09" stop-color="#191560"/><stop offset=".25" stop-color="#1e2c6e"/><stop offset=".44" stop-color="#255285"/><stop offset=".66" stop-color="#2f87a5"/><stop offset=".9" stop-color="#3cc9cd"/><stop offset="1" stop-color="#42e8e0"/></linearGradient><linearGradient id="j" x1="-1240.37" y1="79.34" x2="-1371.74" y2="151.38" gradientTransform="translate(1427.86 268.95) scale(1 -1)" gradientUnits="userSpaceOnUse"><stop offset="0" stop-color="#180d5b"/><stop offset=".09" stop-color="#191560"/><stop offset=".25" stop-color="#1e2c6e"/><stop offset=".44" stop-color="#255285"/><stop offset=".66" stop-color="#2f87a5"/><stop offset=".9" stop-color="#3cc9cd"/><stop offset="1" stop-color="#42e8e0"/></linearGradient><linearGradient id="k" x1="-1346.21" y1="101.98" x2="-1254.85" y2="101.98" gradientTransform="translate(1427.86 268.95) scale(1 -1)" gradientUnits="userSpaceOnUse"><stop offset="0" stop-color="#2b237c"/><stop offset="1" stop-color="#180d5b"/></linearGradient><linearGradient id="l" x1="-1318.28" y1="80.01" x2="-1401.5" y2="127.32" gradientTransform="translate(1427.86 268.95) scale(1 -1)" gradientUnits="userSpaceOnUse"><stop offset="0" stop-color="#180d5b"/><stop offset=".1" stop-color="#191560"/><stop offset=".25" stop-color="#1d2c6e"/><stop offset=".28" stop-color="#1f3372"/><stop offset=".38" stop-color="#22447c"/><stop offset=".57" stop-color="#2a7097"/><stop offset=".83" stop-color="#38b7c2"/><stop offset="1" stop-color="#42e8e0"/></linearGradient><linearGradient id="m" x1="-1346.21" y1="124.28" x2="-1254.85" y2="124.28" gradientTransform="translate(1427.86 268.95) scale(1 -1)" gradientUnits="userSpaceOnUse"><stop offset="0" stop-color="#2b237c"/><stop offset="1" stop-color="#180d5b"/></linearGradient><linearGradient id="n" x1="-1328.93" y1="108.49" x2="-1403.82" y2="150.71" gradientTransform="translate(1427.86 268.95) scale(1 -1)" gradientUnits="userSpaceOnUse"><stop offset="0" stop-color="#180d5b"/><stop offset=".1" stop-color="#191560"/><stop offset=".25" stop-color="#1d2c6e"/><stop offset=".28" stop-color="#1f3372"/><stop offset=".38" stop-color="#22447c"/><stop offset=".57" stop-color="#2a7097"/><stop offset=".83" stop-color="#38b7c2"/><stop offset="1" stop-color="#42e8e0"/></linearGradient><linearGradient id="o" x1="-1303.67" y1="143.22" x2="-1389.85" y2="162.68" gradientTransform="translate(1427.86 268.95) scale(1 -1)" gradientUnits="userSpaceOnUse"><stop offset="0" stop-color="#180d5b"/><stop offset=".09" stop-color="#191560"/><stop offset=".25" stop-color="#1e2c6e"/><stop offset=".44" stop-color="#255285"/><stop offset=".66" stop-color="#2f87a5"/><stop offset=".9" stop-color="#3cc9cd"/><stop offset="1" stop-color="#42e8e0"/></linearGradient><linearGradient id="p" x1="-1240.37" y1="121.34" x2="-1371.74" y2="193.39" gradientTransform="translate(1427.86 268.95) scale(1 -1)" gradientUnits="userSpaceOnUse"><stop offset="0" stop-color="#180d5b"/><stop offset=".09" stop-color="#191560"/><stop offset=".25" stop-color="#1e2c6e"/><stop offset=".44" stop-color="#255285"/><stop offset=".66" stop-color="#2f87a5"/><stop offset=".9" stop-color="#3cc9cd"/><stop offset="1" stop-color="#42e8e0"/></linearGradient><linearGradient id="q" x1="-1346.21" y1="143.99" x2="-1254.85" y2="143.99" gradientTransform="translate(1427.86 268.95) scale(1 -1)" gradientUnits="userSpaceOnUse"><stop offset="0" stop-color="#2b237c"/><stop offset="1" stop-color="#180d5b"/></linearGradient><linearGradient id="r" x1="-1318.28" y1="122.02" x2="-1401.5" y2="169.32" gradientTransform="translate(1427.86 268.95) scale(1 -1)" gradientUnits="userSpaceOnUse"><stop offset="0" stop-color="#180d5b"/><stop offset=".1" stop-color="#191560"/><stop offset=".25" stop-color="#1d2c6e"/><stop offset=".28" stop-color="#1f3372"/><stop offset=".38" stop-color="#22447c"/><stop offset=".57" stop-color="#2a7097"/><stop offset=".83" stop-color="#38b7c2"/><stop offset="1" stop-color="#42e8e0"/></linearGradient><linearGradient id="s" x1="-1282.35" y1="162.36" x2="-1389.55" y2="231.99" gradientTransform="translate(1427.86 268.95) scale(1 -1)" gradientUnits="userSpaceOnUse"><stop offset="0" stop-color="#180d5b"/><stop offset=".09" stop-color="#191560"/><stop offset=".25" stop-color="#1e2c6e"/><stop offset=".44" stop-color="#255285"/><stop offset=".66" stop-color="#2f87a5"/><stop offset=".9" stop-color="#3cc9cd"/><stop offset="1" stop-color="#42e8e0"/></linearGradient><linearGradient id="t" x1="-1346.21" y1="166.29" x2="-1254.85" y2="166.29" gradientTransform="translate(1427.86 268.95) scale(1 -1)" gradientUnits="userSpaceOnUse"><stop offset="0" stop-color="#2b237c"/><stop offset="1" stop-color="#180d5b"/></linearGradient><linearGradient id="u" x1="-1328.93" y1="150.5" x2="-1403.82" y2="192.72" gradientTransform="translate(1427.86 268.95) scale(1 -1)" gradientUnits="userSpaceOnUse"><stop offset="0" stop-color="#180d5b"/><stop offset=".1" stop-color="#191560"/><stop offset=".25" stop-color="#1d2c6e"/><stop offset=".28" stop-color="#1f3372"/><stop offset=".38" stop-color="#22447c"/><stop offset=".57" stop-color="#2a7097"/><stop offset=".83" stop-color="#38b7c2"/><stop offset="1" stop-color="#42e8e0"/></linearGradient><linearGradient id="v" x1="-1303.67" y1="185.23" x2="-1389.85" y2="204.69" gradientTransform="translate(1427.86 268.95) scale(1 -1)" gradientUnits="userSpaceOnUse"><stop offset="0" stop-color="#180d5b"/><stop offset=".09" stop-color="#191560"/><stop offset=".25" stop-color="#1e2c6e"/><stop offset=".44" stop-color="#255285"/><stop offset=".66" stop-color="#2f87a5"/><stop offset=".9" stop-color="#3cc9cd"/><stop offset="1" stop-color="#42e8e0"/></linearGradient><linearGradient id="w" x1="-1240.37" y1="163.35" x2="-1371.74" y2="235.4" gradientTransform="translate(1427.86 268.95) scale(1 -1)" gradientUnits="userSpaceOnUse"><stop offset="0" stop-color="#180d5b"/><stop offset=".09" stop-color="#191560"/><stop offset=".25" stop-color="#1e2c6e"/><stop offset=".44" stop-color="#255285"/><stop offset=".66" stop-color="#2f87a5"/><stop offset=".9" stop-color="#3cc9cd"/><stop offset="1" stop-color="#42e8e0"/></linearGradient><linearGradient id="x" x1="-1346.21" y1="186" x2="-1254.85" y2="186" gradientTransform="translate(1427.86 268.95) scale(1 -1)" gradientUnits="userSpaceOnUse"><stop offset="0" stop-color="#2b237c"/><stop offset="1" stop-color="#180d5b"/></linearGradient><linearGradient id="y" x1="-1318.28" y1="164.03" x2="-1401.5" y2="211.33" gradientTransform="translate(1427.86 268.95) scale(1 -1)" gradientUnits="userSpaceOnUse"><stop offset="0" stop-color="#180d5b"/><stop offset=".1" stop-color="#191560"/><stop offset=".25" stop-color="#1d2c6e"/><stop offset=".28" stop-color="#1f3372"/><stop offset=".38" stop-color="#22447c"/><stop offset=".57" stop-color="#2a7097"/><stop offset=".83" stop-color="#38b7c2"/><stop offset="1" stop-color="#42e8e0"/></linearGradient><linearGradient id="a`" x1="-1282.35" y1="204.37" x2="-1389.55" y2="274" gradientTransform="translate(1427.86 268.95) scale(1 -1)" gradientUnits="userSpaceOnUse"><stop offset="0" stop-color="#180d5b"/><stop offset=".09" stop-color="#191560"/><stop offset=".25" stop-color="#1e2c6e"/><stop offset=".44" stop-color="#255285"/><stop offset=".66" stop-color="#2f87a5"/><stop offset=".9" stop-color="#3cc9cd"/><stop offset="1" stop-color="#42e8e0"/></linearGradient><linearGradient id="aa" x1="-1346.21" y1="208.29" x2="-1254.85" y2="208.29" gradientTransform="translate(1427.86 268.95) scale(1 -1)" gradientUnits="userSpaceOnUse"><stop offset="0" stop-color="#2b237c"/><stop offset="1" stop-color="#180d5b"/></linearGradient><linearGradient id="ab" x1="-1328.93" y1="192.51" x2="-1403.82" y2="234.73" gradientTransform="translate(1427.86 268.95) scale(1 -1)" gradientUnits="userSpaceOnUse"><stop offset="0" stop-color="#180d5b"/><stop offset=".1" stop-color="#191560"/><stop offset=".25" stop-color="#1d2c6e"/><stop offset=".28" stop-color="#1f3372"/><stop offset=".38" stop-color="#22447c"/><stop offset=".57" stop-color="#2a7097"/><stop offset=".83" stop-color="#38b7c2"/><stop offset="1" stop-color="#42e8e0"/></linearGradient><linearGradient id="ac" x1="-1303.67" y1="227.24" x2="-1389.85" y2="246.7" gradientTransform="translate(1427.86 268.95) scale(1 -1)" gradientUnits="userSpaceOnUse"><stop offset="0" stop-color="#180d5b"/><stop offset=".09" stop-color="#191560"/><stop offset=".25" stop-color="#1e2c6e"/><stop offset=".44" stop-color="#255285"/><stop offset=".66" stop-color="#2f87a5"/><stop offset=".9" stop-color="#3cc9cd"/><stop offset="1" stop-color="#42e8e0"/></linearGradient></defs><g><path class="bk" d="M102.04,269.28c-2.92,0-5.72-.59-7.8-1.79L3.16,214.9c-2.04-1.18-3.16-2.81-3.16-4.6,0-2.15,1.62-4.32,4.43-5.95l88.53-51.11c5.3-3.06,13.34-3.39,17.94-.74l91.08,52.59c2.04,1.18,3.16,2.81,3.16,4.6,0,2.15-1.62,4.32-4.44,5.95l-88.53,51.11c-2.89,1.67-6.61,2.53-10.14,2.53h0Zm-7.63-2.09c4.5,2.6,12.39,2.27,17.6-.74l88.53-51.11c2.71-1.57,4.26-3.63,4.26-5.65,0-1.67-1.06-3.19-2.99-4.31l-91.08-52.59c-4.5-2.6-12.39-2.27-17.6,.74L4.6,204.64c-2.71,1.57-4.26,3.63-4.26,5.65,0,1.67,1.06,3.19,2.99,4.31l91.08,52.59h0Z"/><g><circle class="ax" cx="80.03" cy="160.87" r="6.87"/><path class="bk" d="M81.99,160.87c0,1.08-.88,1.96-1.96,1.96s-1.96-.88-1.96-1.96,.88-1.96,1.96-1.96,1.96,.88,1.96,1.96Z"/></g><path class="bk" d="M12.67,200.97c0,1.08-.88,1.96-1.96,1.96s-1.96-.88-1.96-1.96,.88-1.96,1.96-1.96,1.96,.88,1.96,1.96Z"/><circle class="bk" cx="161.17" cy="238.27" r="1.96"/><path class="bk" d="M175.87,230.76c0,1.08-.88,1.96-1.96,1.96s-1.96-.88-1.96-1.96,.88-1.96,1.96-1.96,1.96,.88,1.96,1.96Z"/><circle class="bk" cx="186.65" cy="223.36" r="1.96"/></g><g><g><g><polygon class="bg" points="102.89 232.74 38.97 195.84 102.89 158.94 166.8 195.84 102.89 232.74"/><polygon class="bg" points="102.89 222.12 38.97 185.22 102.89 148.32 166.8 185.22 102.89 222.12"/><polygon class="aw" points="102.89 213.71 53.54 185.22 102.89 156.73 152.23 185.22 102.89 213.71"/><polygon class="ah" points="166.8 185.22 166.8 195.84 102.89 232.74 102.89 222.12 166.8 185.22"/><polygon class="bg" points="38.97 185.22 38.97 195.84 102.89 232.74 102.89 222.12 38.97 185.22"/><polygon class="ag" points="38.97 185.22 38.97 195.84 102.89 232.74 102.89 222.12 38.97 185.22"/><polygon class="bg" points="102.89 210.44 38.97 173.54 102.89 136.64 166.8 173.54 102.89 210.44"/><polygon class="bg" points="102.89 199.83 38.97 162.92 102.89 126.02 166.8 162.93 102.89 199.83"/><polygon class="aj" points="102.89 199.83 38.97 162.92 102.89 126.02 166.8 162.93 102.89 199.83"/><g><polygon class="bi" points="102.89 176.59 79.22 162.92 102.89 149.26 126.55 162.93 102.89 176.59"/><polygon class="bi" points="102.89 158.54 118.52 167.56 126.55 162.93 102.89 149.26 79.22 162.92 87.25 167.56 102.89 158.54"/><polygon class="bh" points="102.89 158.54 118.52 167.56 126.55 162.93 102.89 149.26 79.22 162.92 87.25 167.56 102.89 158.54"/></g><polygon class="ai" points="166.8 162.93 166.8 173.54 102.89 210.44 102.89 199.83 166.8 162.93"/><polygon class="bg" points="38.97 162.92 38.97 173.54 102.89 210.44 102.89 199.83 38.97 162.92"/><polygon class="aq" points="38.97 162.92 38.97 173.54 102.89 210.44 102.89 199.83 38.97 162.92"/><polygon class="bi" points="102.89 210.44 102.89 222.12 38.97 185.22 38.97 173.54 102.89 210.44"/><g><polygon class="bi" points="53.54 181.95 53.54 185.22 102.89 213.71 152.23 185.22 152.23 181.95 102.89 210.44 53.54 181.95"/><polygon class="bi" points="102.89 210.44 102.89 213.71 53.54 185.22 53.54 181.95 102.89 210.44"/></g><polygon class="ap" points="40.48 162.92 103.64 126.46 102.89 126.02 38.97 162.92 102.89 199.83 103.64 199.39 40.48 162.92"/></g><polygon class="bj" points="38.97 173.54 38.97 185.22 39.85 185.73 39.85 174.05 38.97 173.54"/><polygon class="bj" points="166.8 173.54 166.8 185.22 165.92 185.73 165.92 174.05 166.8 173.54"/><polygon class="bj" points="102.89 210.44 102.89 210.44 101.38 209.57 101.38 221.26 102.89 222.12 102.89 222.12 102.89 222.12 102.89 222.12 102.89 222.12 104.4 221.26 104.4 209.57 102.89 210.44"/></g><g><g><polygon class="bg" points="102.89 190.73 38.97 153.83 102.89 116.93 166.8 153.83 102.89 190.73"/><polygon class="bg" points="102.89 180.12 38.97 143.21 102.89 106.31 166.8 143.22 102.89 180.12"/><polygon class="as" points="102.89 171.71 53.54 143.21 102.89 114.72 152.23 143.22 102.89 171.71"/><polygon class="ar" points="166.8 143.22 166.8 153.83 102.89 190.73 102.89 180.12 166.8 143.22"/><polygon class="bg" points="38.97 143.21 38.97 153.83 102.89 190.73 102.89 180.12 38.97 143.21"/><polygon class="au" points="38.97 143.21 38.97 153.83 102.89 190.73 102.89 180.12 38.97 143.21"/><polygon class="bg" points="102.89 168.43 38.97 131.53 102.89 94.63 166.8 131.53 102.89 168.43"/><polygon class="bg" points="102.89 157.82 38.97 120.92 102.89 84.02 166.8 120.92 102.89 157.82"/><polygon class="bf" points="102.89 157.82 38.97 120.92 102.89 84.02 166.8 120.92 102.89 157.82"/><g><polygon class="bi" points="102.89 134.58 79.22 120.92 102.89 107.25 126.55 120.92 102.89 134.58"/><polygon class="bi" points="102.89 116.53 118.52 125.55 126.55 120.92 102.89 107.25 79.22 120.92 87.25 125.55 102.89 116.53"/><polygon class="bh" points="102.89 116.53 118.52 125.55 126.55 120.92 102.89 107.25 79.22 120.92 87.25 125.55 102.89 116.53"/></g><polygon class="at" points="166.8 120.92 166.8 131.53 102.89 168.43 102.89 157.82 166.8 120.92"/><polygon class="bg" points="38.97 120.92 38.97 131.53 102.89 168.43 102.89 157.82 38.97 120.92"/><polygon class="av" points="38.97 120.92 38.97 131.53 102.89 168.43 102.89 157.82 38.97 120.92"/><polygon class="bi" points="102.89 168.43 102.89 180.12 38.97 143.21 38.97 131.53 102.89 168.43"/><g><polygon class="bi" points="53.54 139.94 53.54 143.21 102.89 171.71 152.23 143.22 152.23 139.94 102.89 168.43 53.54 139.94"/><polygon class="bi" points="102.89 168.43 102.89 171.71 53.54 143.21 53.54 139.94 102.89 168.43"/></g><polygon class="al" points="40.48 120.92 103.64 84.45 102.89 84.02 38.97 120.92 102.89 157.82 103.64 157.38 40.48 120.92"/></g><polygon class="bj" points="38.97 131.53 38.97 143.21 39.85 143.72 39.85 132.04 38.97 131.53"/><polygon class="bj" points="166.8 131.53 166.8 143.21 165.92 143.72 165.92 132.04 166.8 131.53"/><polygon class="bj" points="102.89 168.43 102.89 168.43 101.38 167.56 101.38 179.26 102.89 180.12 102.89 180.12 102.89 180.12 102.89 180.12 102.89 180.12 104.4 179.26 104.4 167.56 102.89 168.43"/></g><g><g><polygon class="bg" points="102.89 148.72 38.97 111.82 102.89 74.92 166.8 111.82 102.89 148.72"/><polygon class="bg" points="102.89 138.11 38.97 101.21 102.89 64.31 166.8 101.21 102.89 138.11"/><polygon class="ak" points="102.89 129.7 53.54 101.21 102.89 72.72 152.23 101.21 102.89 129.7"/><polygon class="an" points="166.8 101.21 166.8 111.82 102.89 148.72 102.89 138.11 166.8 101.21"/><polygon class="bg" points="38.97 101.21 38.97 111.82 102.89 148.72 102.89 138.11 38.97 101.21"/><polygon class="ao" points="38.97 101.21 38.97 111.82 102.89 148.72 102.89 138.11 38.97 101.21"/><polygon class="bg" points="102.89 126.42 38.97 89.52 102.89 52.62 166.8 89.52 102.89 126.42"/><polygon class="bg" points="102.89 115.81 38.97 78.91 102.89 42.01 166.8 78.91 102.89 115.81"/><polygon class="am" points="102.89 115.81 38.97 78.91 102.89 42.01 166.8 78.91 102.89 115.81"/><g><polygon class="bi" points="102.89 92.57 79.22 78.91 102.89 65.25 126.55 78.91 102.89 92.57"/><polygon class="bi" points="102.89 74.52 118.52 83.55 126.55 78.91 102.89 65.25 79.22 78.91 87.25 83.55 102.89 74.52"/><polygon class="bh" points="102.89 74.52 118.52 83.55 126.55 78.91 102.89 65.25 79.22 78.91 87.25 83.55 102.89 74.52"/></g><polygon class="ae" points="166.8 78.91 166.8 89.52 102.89 126.42 102.89 115.81 166.8 78.91"/><polygon class="bg" points="38.97 78.91 38.97 89.52 102.89 126.42 102.89 115.81 38.97 78.91"/><polygon class="ad" points="38.97 78.91 38.97 89.52 102.89 126.42 102.89 115.81 38.97 78.91"/><polygon class="bi" points="102.89 126.42 102.89 138.11 38.97 101.21 38.97 89.52 102.89 126.42"/><g><polygon class="bi" points="53.54 97.93 53.54 101.21 102.89 129.7 152.23 101.21 152.23 97.93 102.89 126.42 53.54 97.93"/><polygon class="bi" points="102.89 126.42 102.89 129.7 53.54 101.21 53.54 97.93 102.89 126.42"/></g><polygon class="af" points="40.48 78.91 103.64 42.44 102.89 42.01 38.97 78.91 102.89 115.81 103.64 115.37 40.48 78.91"/></g><polygon class="bj" points="38.97 89.52 38.97 101.21 39.85 101.71 39.85 90.03 38.97 89.52"/><polygon class="bj" points="166.8 89.52 166.8 101.21 165.92 101.71 165.92 90.03 166.8 89.52"/><polygon class="bj" points="102.89 126.42 102.89 126.42 101.38 125.55 101.38 137.25 102.89 138.11 102.89 138.11 102.89 138.11 102.89 138.11 102.89 138.11 104.4 137.25 104.4 125.55 102.89 126.42"/></g><g><g><polygon class="bg" points="102.89 106.71 38.97 69.81 102.89 32.91 166.8 69.81 102.89 106.71"/><polygon class="bg" points="102.89 96.1 38.97 59.2 102.89 22.3 166.8 59.2 102.89 96.1"/><polygon class="b`" points="102.89 87.69 53.54 59.2 102.89 30.71 152.23 59.2 102.89 87.69"/><polygon class="ay" points="166.8 59.2 166.8 69.81 102.89 106.71 102.89 96.1 166.8 59.2"/><polygon class="bg" points="38.97 59.2 38.97 69.81 102.89 106.71 102.89 96.1 38.97 59.2"/><polygon class="ba" points="38.97 59.2 38.97 69.81 102.89 106.71 102.89 96.1 38.97 59.2"/><polygon class="bg" points="102.89 84.42 38.97 47.52 102.89 10.61 166.8 47.52 102.89 84.42"/><polygon class="bg" points="102.89 73.8 38.97 36.9 102.89 0 166.8 36.9 102.89 73.8"/><polygon class="bd" points="102.89 73.8 38.97 36.9 102.89 0 166.8 36.9 102.89 73.8"/><polygon class="bb" points="166.8 36.9 166.8 47.52 102.89 84.42 102.89 73.8 166.8 36.9"/><polygon class="bg" points="38.97 36.9 38.97 47.52 102.89 84.42 102.89 73.8 38.97 36.9"/><polygon class="bc" points="38.97 36.9 38.97 47.52 102.89 84.42 102.89 73.8 38.97 36.9"/><polygon class="bi" points="102.89 84.42 102.89 96.1 38.97 59.2 38.97 47.52 102.89 84.42"/><g><polygon class="bi" points="53.54 55.93 53.54 59.2 102.89 87.69 152.23 59.2 152.23 55.93 102.89 84.42 53.54 55.93"/><polygon class="bi" points="102.89 84.42 102.89 87.69 53.54 59.2 53.54 55.93 102.89 84.42"/></g><polygon class="be" points="40.48 36.9 103.64 .44 102.89 0 38.97 36.9 102.89 73.8 103.64 73.37 40.48 36.9"/></g><polygon class="bj" points="38.97 47.52 38.97 59.2 39.85 59.71 39.85 48.02 38.97 47.52"/><polygon class="bj" points="166.8 47.52 166.8 59.2 165.92 59.71 165.92 48.02 166.8 47.52"/><polygon class="bj" points="102.89 84.42 102.89 84.42 101.38 83.55 101.38 95.24 102.89 96.1 102.89 96.1 102.89 96.1 102.89 96.1 102.89 96.1 104.4 95.24 104.4 83.55 102.89 84.42"/></g></g><g><path class="bl" d="M99.78,38.69c.81,.47,.81,1.23,0,1.7s-2.13,.47-2.94,0-.81-1.23,0-1.7,2.13-.47,2.94,0Z"/><path class="bm" d="M104.36,36.05c.81,.47,.81,1.23,0,1.7s-2.13,.47-2.94,0-.81-1.23,0-1.7,2.13-.47,2.94,0Z"/><path class="bl" d="M108.93,33.41c.81,.47,.81,1.23,0,1.7s-2.13,.47-2.94,0-.81-1.23,0-1.7,2.13-.47,2.94,0Z"/></g></svg>